<?xml version="1.0" encoding="utf-8"?>
<!-- Generator: Adobe Illustrator 19.1.0, SVG Export Plug-In . SVG Version: 6.00 Build 0)  -->
<!DOCTYPE svg PUBLIC "-//W3C//DTD SVG 1.1//EN" "http://www.w3.org/Graphics/SVG/1.1/DTD/svg11.dtd">
<svg version="1.1" id="Layer_1" xmlns="http://www.w3.org/2000/svg" xmlns:xlink="http://www.w3.org/1999/xlink" x="0px" y="0px"
	 viewBox="0 0 128 128" style="enable-background:new 0 0 128 128;" xml:space="preserve">
<style type="text/css">
	.st0{opacity:0.6;fill:#D1D1D1;}
	.st1{fill:#020202;}
	.st2{fill:#540188;}
	.st3{fill:#FE7B16;}
	.st4{fill:#FF1143;}
</style>
<path class="st0" d="M120.7,128H12.2c-4,0-7.3-3.2-7.3-7.3V12.2c0-4,3.2-7.3,7.3-7.3h108.5c4,0,7.3,3.2,7.3,7.3v108.5
	C128,124.7,124.8,128,120.7,128z"/>
<path class="st1" d="M117.2,123.3H7.1c-3.4,0-6.1-2.7-6.1-6.1V7.1C1,3.7,3.7,1,7.1,1h110.1c3.4,0,6.1,2.7,6.1,6.1v110.1
	C123.4,120.6,120.6,123.3,117.2,123.3z"/>
<rect x="47.7" y="62.6" class="st2" width="12.1" height="12.8"/>
<rect x="59.8" y="49.4" class="st2" width="12.1" height="12.8"/>
<rect x="100.6" y="10.3" class="st2" width="12.1" height="12.8"/>
<polygon class="st2" points="23.1,10 22.9,10 11,10 11,22.8 22.9,22.8 23.1,22.8 35,22.8 35,10 "/>
<rect x="89.1" y="101.5" class="st2" width="12.1" height="12.8"/>
<polygon class="st2" points="47.7,101.7 47.7,89.1 35.7,89.1 35.7,76.8 23.7,76.8 23.7,64.1 11.6,64.1 11.6,76.8 11.6,76.9 
	11.6,89.1 11.6,89.6 11.6,101.7 11.6,101.9 11.6,114.5 23.6,114.5 23.7,114.5 35.5,114.5 35.7,114.5 47.5,114.5 47.7,114.5 
	59.6,114.5 59.6,101.7 "/>
<rect x="64.6" y="33.5" class="st3" width="6.7" height="7.1"/>
<rect x="106.4" y="73.6" class="st3" width="6.7" height="7.1"/>
<rect x="64.9" y="102.1" class="st3" width="6.7" height="7.1"/>
<polygon class="st2" points="101.1,49.8 89,49.8 89,62.6 101.1,62.6 113.2,62.6 113.2,49.8 "/>
<rect x="10.9" y="36" class="st4" width="12.1" height="12.8"/>
<rect x="101.4" y="101.5" class="st4" width="12.1" height="12.8"/>
</svg>
