<?xml version="1.0" encoding="utf-8"?>
<!-- Generator: Adobe Illustrator 19.1.0, SVG Export Plug-In . SVG Version: 6.00 Build 0)  -->
<!DOCTYPE svg PUBLIC "-//W3C//DTD SVG 1.1//EN" "http://www.w3.org/Graphics/SVG/1.1/DTD/svg11.dtd">
<svg version="1.1" xmlns="http://www.w3.org/2000/svg" xmlns:xlink="http://www.w3.org/1999/xlink" x="0px" y="0px"
	 viewBox="0 0 24 24" style="enable-background:new 0 0 24 24;" xml:space="preserve">
<style type="text/css">
	.st0{fill:#540188;}
	.st1{fill:#FE7B16;}
	.st2{fill:#FF1143;}
</style>
<g id="Layer_2">
</g>
<g id="Layer_1">
</g>
<g id="Layer_3">
	<rect x="8.6" y="12.1" class="st0" width="2.8" height="2.9"/>
	<rect x="11.4" y="9.1" class="st0" width="2.8" height="2.9"/>
	<rect x="21.2" y="0" class="st0" width="2.8" height="2.9"/>
	<polygon class="st0" points="2.9,0 2.8,0 0,0 0,3 2.8,3 2.9,3 5.6,3 5.6,0 	"/>
	<rect x="18.3" y="21.1" class="st0" width="2.8" height="2.9"/>
	<polygon class="st0" points="8.4,21.1 8.4,18.2 5.6,18.2 5.6,15.4 2.8,15.4 2.8,12.4 0,12.4 0,15.4 0,15.4 0,18.2 0,18.3 0,21.1 
		0,21.1 0,24 2.8,24 2.8,24 5.6,24 5.6,24 8.4,24 8.4,24 11.2,24 11.2,21.1 	"/>
	<rect x="12.6" y="5.4" class="st1" width="1.6" height="1.6"/>
	<rect x="22.4" y="14.6" class="st1" width="1.6" height="1.6"/>
	<rect x="12.6" y="21.2" class="st1" width="1.6" height="1.6"/>
	<polygon class="st0" points="21.2,9.2 18.3,9.2 18.3,12.1 21.2,12.1 24,12.1 24,9.2 	"/>
	<rect x="0" y="6" class="st2" width="2.8" height="2.9"/>
	<rect x="21.2" y="21.1" class="st2" width="2.8" height="2.9"/>
</g>
</svg>
