<?xml version="1.0" encoding="utf-8"?>
<!-- Generator: Adobe Illustrator 19.1.0, SVG Export Plug-In . SVG Version: 6.00 Build 0)  -->
<!DOCTYPE svg PUBLIC "-//W3C//DTD SVG 1.1//EN" "http://www.w3.org/Graphics/SVG/1.1/DTD/svg11.dtd">
<svg version="1.1" id="Layer_1" xmlns="http://www.w3.org/2000/svg" xmlns:xlink="http://www.w3.org/1999/xlink" x="0px" y="0px"
	 viewBox="-308 438 150 150" style="enable-background:new -308 438 150 150;" xml:space="preserve">
<style type="text/css">
	.st0{fill:#540188;}
	.st1{fill:#FE7B16;}
	.st2{fill:#FF1143;}
</style>
<rect x="-308" y="438.2" width="150" height="150"/>
<rect x="-250.9" y="513.6" class="st0" width="15.3" height="16.1"/>
<rect x="-235.7" y="497.1" class="st0" width="15.3" height="16.1"/>
<rect x="-184.4" y="447.9" class="st0" width="15.3" height="16.1"/>
<polygon class="st0" points="-281.7,447.5 -282,447.5 -297,447.5 -297,463.6 -282,463.6 -281.7,463.6 -266.8,463.6 -266.8,447.5 "/>
<rect x="-198.8" y="562.4" class="st0" width="15.3" height="16.1"/>
<polygon class="st0" points="-250.9,562.7 -250.9,546.8 -266,546.8 -266,531.4 -281,531.4 -281,515.5 -296.2,515.5 -296.2,531.4 
	-296.2,531.6 -296.2,546.8 -296.2,547.5 -296.2,562.7 -296.2,562.9 -296.2,578.8 -281.2,578.8 -281,578.8 -266.2,578.8 -266,578.8 
	-251.1,578.8 -250.9,578.8 -235.9,578.8 -235.9,562.7 "/>
<rect x="-229.6" y="477" class="st1" width="8.4" height="8.9"/>
<rect x="-177.2" y="527.4" class="st1" width="8.4" height="8.9"/>
<rect x="-229.3" y="563.3" class="st1" width="8.4" height="8.9"/>
<polygon class="st0" points="-183.8,497.5 -199,497.5 -199,513.6 -183.8,513.6 -168.5,513.6 -168.5,497.5 "/>
<rect x="-297.1" y="480.1" class="st2" width="15.3" height="16.1"/>
<rect x="-183.3" y="562.4" class="st2" width="15.3" height="16.1"/>
</svg>
